<mxfile host="app.diagrams.net" modified="2023-10-28T19:35:39.459Z" agent="Mozilla/5.0 (X11; Linux x86_64) AppleWebKit/537.36 (KHTML, like Gecko) Chrome/117.0.0.0 Safari/537.36" version="22.0.8" etag="XN607P0eWj5SCcDhiuts" type="github">
  <diagram name="PÃ¡gina-1" id="ETZNSiQvTZ4J-55iKF7z">
    <mxGraphModel>
      <root>
        <mxCell id="0" />
        <mxCell id="1" parent="0" />
      </root>
    </mxGraphModel>
  </diagram>
</mxfile>
